# xmcd CD database file
#
# Track frame offsets:
#	150
#	28310
#	40592
#	52670
#	68285
#	81202
#	94430
#	104610
#	118927
#	131235
#	163545
#	190335
#	203917
#	215455
#	230170
#
# Disc length: 3297 seconds
#
# Revision: 4
# Processed by: cddbd v1.5.1PL2 Copyright (c) Steve Scherf et al.
# Submitted via: CDex 1.51
#
DISCID=d70cdf0f
DTITLE=Various Artist - Blues' Greatest [CD3/4)
DYEAR=1997
DGENRE=Blues
TTITLE0=Bobby Bland and BB King - Let The Good Times Roll
TTITLE1=Joe Turner - Doggin' The Dog
TTITLE2=BB King - Help The Poor
TTITLE3=Bobby Bland - Driftin' Blues
TTITLE4=T-Bone Walker - Confusion Blues
TTITLE5=Howlin' Wolf - Worried About My Baby
TTITLE6=Albert Collins - Don't Loose Your Cool
TTITLE7=Lowell Fulson - Reconsider Baby
TTITLE8=John Lee Hooker - I'm In The Mood
TTITLE9=Buddy Guy - Stone Crazy
TTITLE10=BB King - Philadelphia
TTITLE11=Koko Taylor - Wang Dang Doodle
TTITLE12=Irma Thomas - Good To Me
TTITLE13=Eddie Boyd - Third Degree
TTITLE14=Bobby Bland - Call On Me
EXTD=YEAR: 1997
EXTT0=
EXTT1=
EXTT2=
EXTT3=
EXTT4=
EXTT5=
EXTT6=
EXTT7=
EXTT8=
EXTT9=
EXTT10=
EXTT11=
EXTT12=
EXTT13=
EXTT14=
PLAYORDER=
